<?xml version="1.0" encoding="utf-8"?>
<!-- Generator: Adobe Illustrator 24.2.1, SVG Export Plug-In . SVG Version: 6.00 Build 0)  -->
<svg version="1.1" id="Layer_1" xmlns="http://www.w3.org/2000/svg" xmlns:xlink="http://www.w3.org/1999/xlink" x="0px" y="0px"
	 viewBox="0 0 352.1 131" style="enable-background:new 0 0 352.1 131;" xml:space="preserve">
<style type="text/css">
	.st0{fill:#162B4D;}
	.st1{fill-rule:evenodd;clip-rule:evenodd;fill:#162B4D;}
	.st2{fill:#B7E3EA;}
	.st3{enable-background:new    ;}
</style>
<g id="neptune-ai-blue-horizontal">
	<g id="Group-Copy-2">
		<g>
			<path class="st0" d="M120.8,74.9c0,0.5-0.7,1.1-1.5,1.1s-1.5-0.5-1.5-1.1V60c0-0.6,0.6-1,1.5-1c0.7,0,1.4,0.4,1.4,1v1.5
				c1-1.7,2.8-2.8,4.8-2.7c3.4,0,6.3,3.1,6.3,6.9V75c0,0.7-0.8,1.1-1.5,1.1s-1.5-0.4-1.5-1.1v-9.3c-0.1-2.3-1.9-4.1-4.1-4.2
				c-2.2,0.1-4,1.9-3.9,4.1c0,0,0,0.1,0,0.1V74.9z"/>
			<path class="st0" d="M150.3,65.3c0,2.9-1.6,3-3.2,3h-7.9v1.1c0,2.7,2.1,4.4,5.1,4.4c2.7,0,3.5-1.4,4.4-1.4
				c0.7,0.1,1.2,0.7,1.2,1.4c0,0.9-2.2,2.6-5.7,2.6c-4.7,0-8-2.8-8-7v-3.8c0.1-3.9,3.3-6.9,7.2-6.8c0,0,0,0,0,0
				c3.6-0.2,6.7,2.6,6.9,6.3C150.3,65.1,150.3,65.2,150.3,65.3z M145.9,66.3c1.3,0,1.6-0.2,1.6-1.2c0-2.3-1.8-4.1-4.1-4.1
				c-2.2-0.1-4,1.7-4.1,3.9c0,0,0,0,0,0v1.3L145.9,66.3L145.9,66.3z"/>
			<path class="st0" d="M157.5,60v1.5c1-1.7,2.8-2.7,4.8-2.7c3.7,0.1,6.6,3.2,6.5,6.9v3.7c0,3.6-3,7-6.3,7c-2,0-3.8-1-4.8-2.8v9.7
				c0,0.5-0.7,1.1-1.5,1.1s-1.5-0.5-1.5-1.1V60c0-0.6,0.6-1,1.4-1c0.6-0.1,1.2,0.2,1.4,0.8C157.5,59.9,157.5,59.9,157.5,60z
				 M165.8,65.6c-0.1-2.3-1.9-4.1-4.2-4.2c-2.2,0-4,1.9-4,4.1c0,0,0,0.1,0,0.1v4.6c0,1,1.7,3.3,4.1,3.3c2.3-0.1,4.1-2,4.1-4.3
				L165.8,65.6L165.8,65.6z"/>
			<path class="st0" d="M176.3,70.6c0,2.1,0.8,2.8,3,2.8h1.1c0.7,0,1.3,0.6,1.3,1.3c0,0.7-0.6,1.3-1.3,1.3c0,0,0,0,0,0h-1.1
				c-3.9,0-6-1.7-6-5.4V52c0-0.6,0.8-1,1.5-1s1.5,0.4,1.5,1v6.9h4.5c0.5,0,0.9,0.6,0.9,1.2s-0.4,1.2-0.9,1.2h-4.5V70.6z"/>
			<path class="st0" d="M185.4,69.4V60c0.1-0.7,0.8-1.2,1.5-1.1c0.8,0,1.5,0.5,1.5,1.1v9.4c0,2.3,1.8,4.1,4.1,4.1
				c2.3,0,4.1-1.8,4.1-4.1c0,0,0,0,0,0V60c0-0.5,0.7-1,1.5-1s1.5,0.5,1.5,1v9.4c0,3.9-3.2,7.1-7.1,7.1
				C188.6,76.5,185.4,73.3,185.4,69.4z"/>
			<path class="st0" d="M207.8,74.9c0,0.5-0.7,1.1-1.5,1.1s-1.5-0.5-1.5-1.1V60c0-0.6,0.6-1,1.5-1c0.7,0,1.4,0.4,1.4,1v1.5
				c1-1.7,2.8-2.8,4.8-2.7c3.4,0,6.3,3.1,6.3,6.9V75c0,0.7-0.8,1.1-1.5,1.1s-1.5-0.4-1.5-1.1v-9.3c-0.1-2.3-1.9-4.1-4.1-4.2
				c-2.2,0.1-4,1.9-3.9,4.1c0,0,0,0.1,0,0.1V74.9z"/>
			<path class="st0" d="M237.3,65.3c0,2.9-1.6,3-3.2,3h-7.9v1.1c0,2.7,2.1,4.4,5.1,4.4c2.7,0,3.5-1.4,4.4-1.4
				c0.7,0.1,1.2,0.7,1.2,1.4c0,0.9-2.2,2.6-5.7,2.6c-4.7,0-8-2.8-8-7v-3.8c0.1-3.9,3.3-6.9,7.2-6.8c0,0,0,0,0,0
				c3.6-0.2,6.7,2.6,6.9,6.3C237.3,65.1,237.3,65.2,237.3,65.3z M232.9,66.3c1.3,0,1.6-0.2,1.6-1.2c0-2.3-1.8-4.1-4.1-4.1
				c-2.2-0.1-4,1.7-4.1,3.9c0,0,0,0,0,0v1.3L232.9,66.3L232.9,66.3z"/>
			<path class="st0" d="M244.6,74.3c0,1-0.9,1.8-1.9,1.8s-1.8-0.9-1.8-1.9c0-1,0.9-1.8,1.9-1.8C243.8,72.5,244.6,73.3,244.6,74.3z"
				/>
			<path class="st0" d="M261,65.7v9.2c0,0.6-0.6,1.1-1.5,1.1c-0.7,0.1-1.3-0.4-1.4-1.1v-1.4c-1.3,1.7-3.3,2.7-5.4,2.8
				c-2.7,0-4.9-1.5-4.9-4.8c0-4,3.4-5,8.4-5h1.7v-0.8c0-2.1-1.1-4.5-4-4.5c-2.5,0-3.3,1-3.9,1s-1.1-0.9-1.1-1.5
				c0-1.1,2.7-2.1,5.1-2.1C259.2,58.7,261,62.1,261,65.7z M258,68.3h-1.3c-3.1,0-5.9,0.3-5.9,2.8c-0.1,1.4,0.9,2.6,2.3,2.7
				c0.2,0,0.4,0,0.5,0c2.1,0,4.4-2,4.4-3.7C258,70.1,258,68.3,258,68.3z"/>
			<path class="st0" d="M269.4,52.5c0,1-0.8,1.7-1.8,1.7c-1,0-1.8-0.7-1.9-1.7c0.1-1,0.9-1.8,1.9-1.7c0,0,0,0,0,0
				C268.6,50.8,269.4,51.5,269.4,52.5z M269.1,60v14.9c0,0.5-0.7,1.1-1.5,1.1s-1.5-0.5-1.5-1.1V60c0-0.6,0.6-1,1.5-1
				S269.1,59.4,269.1,60L269.1,60z"/>
		</g>
		<g id="Group-29-Copy-20">
			<path id="Fill-11" class="st1" d="M85.3,85.6c1.7-4,2.6-8.8,3.4-13.4c0.2-1.3,0.5-2.6,0.7-3.8c0.4-1.6,0.6-3.3,0.5-5
				c-0.1-1.7-1.5-3.1-3.2-3.2c-2.3-0.1-3.5,1-4,3.3l-0.8,4.1c-0.6,3.2-1.2,6.3-1.8,9.5c0,0.2,0,0.3-0.1,0.5
				c-0.4,2.3-0.7,3.6-1.3,4.3c-0.5,0.6-1.3,0.9-2.1,0.8c-0.6-0.1-1.4-0.5-2-1.9c-0.1-1-0.4-2.8-0.6-3.8c-0.5-2.5-1-5.1-1.5-7.6
				c-1.1-5.5-2.2-11.1-3.5-16.7c-1.1-4.5-2.4-8.9-4.1-13.2c-1.5-3.9-3.6-5.5-6.8-5.5c-3.9,0-5.8,2.5-7.4,5.5
				c-2.2,4.3-3.4,9.2-4.5,14.7c-1,4.6-1.9,9.4-2.8,13.9c-0.5,2.4-0.9,4.7-1.4,7.1c0,0.2-1.1,5-1.2,5.4c-0.5,1.3-1.3,2-2.2,2
				c-1.4,0-2.1-1.7-2.2-2.2c-0.1-0.5-0.3-1.1-0.5-1.6c-0.2-0.6-0.4-1.2-0.5-1.8c-0.5-2.6-1-5.2-1.6-7.8c-1.1-5.5-2.2-11.2-3.5-16.7
				c-1-4.5-2.4-8.8-4.1-13.1c-1.4-3.5-4-4.8-6.3-4.9c-3.3,0-6.3,2-7.6,5l0,0c-2.2,4.7-3.8,9.7-4.8,14.8c-0.7,3-1.2,6-1.5,9
				c-0.1,1.6,0.8,3.1,2.3,3.7c1,0.4,2.1,0.3,3.1-0.2c0.9-0.6,1.5-1.5,1.7-2.5c0.6-2.8,1.1-5.7,1.6-8.4c0.3-1.4,1.8-8.8,2.1-9.7
				s0.9-3,2.4-3h0.1c1.4,0.1,2,1.9,2.4,3.6c0.2,0.8,0.6,2.8,0.9,4.6c0.2,0.9,0.4,1.8,0.5,2.4c0.6,2.8,1.1,5.6,1.7,8.3
				c0.3,1.6,0.7,3.1,1,4.7c1.1,5,2.2,10.2,3.5,15.2c0.7,2.5,1.8,4.9,3.2,7.1c1.1,1.9,3.1,3.1,5.3,3.2c3.5,0.1,6.6-2.4,8.2-6.5
				c2.2-5.6,3.4-11.7,4.6-17.7c0,0,2.9-14.9,3.5-17.6c0.1-0.7,1-4.3,1.2-4.9c0.8-2.4,1.9-2.6,2.4-2.6h0.1c1.5,0,2.5,2.2,3.8,8.8
				l0.1,0.4c0.7,3.1,1.3,6.3,1.9,9.4c1.1,5.4,2.2,10.9,3.4,16.3c0.6,3.8,2.1,7.4,4.2,10.6c2.6,3.7,6.2,4.4,10,2.1
				C83,89.4,84.5,87.6,85.3,85.6"/>
			<path id="Fill-13" class="st1" d="M4.5,82.8L4.5,82.8C2,82.9,0,84.9,0,87.4c0.1,2.5,2.1,4.5,4.6,4.6c1.2-0.1,2.3-0.6,3.1-1.5
				C8.5,89.7,9,88.6,9,87.4C9,84.9,7,82.9,4.5,82.8"/>
		</g>
	</g>
</g>
<path class="st2" d="M305.6,53h41.5c2.8,0,5,2.2,5,5V76c0,2.8-2.2,5-5,5h-41.5c-2.8,0-5-2.2-5-5V58C300.6,55.2,302.8,53,305.6,53z"
	/>
<g class="st3">
	<path class="st0" d="M314.3,61.5c1.9,0,3.4,0.9,3.4,3.3v4.3c0,2.4-1.5,3.3-3.4,3.3h-2.7c-0.4,0-0.7-0.2-0.7-0.5V62
		c0-0.3,0.3-0.5,0.7-0.5H314.3z M312.5,62.9v8.1h1.8c1.1,0,1.8-0.6,1.8-1.9v-4.3c0-1.3-0.7-1.9-1.8-1.9H312.5z"/>
	<path class="st0" d="M319.4,69.2v-4.4c0-2.4,1.5-3.3,3.4-3.3c1.9,0,3.4,0.9,3.4,3.3v4.4c0,2.4-1.5,3.3-3.4,3.3
		C320.9,72.6,319.4,71.7,319.4,69.2z M324.6,64.9c0-1.3-0.7-1.9-1.8-1.9c-1.1,0-1.8,0.6-1.8,1.9v4.4c0,1.3,0.6,1.9,1.8,1.9
		c1.1,0,1.8-0.6,1.8-1.9V64.9z"/>
	<path class="st0" d="M331.3,62.9c-1.2,0-1.8,0.6-1.8,1.9v4.4c0,1.3,0.6,1.9,1.8,1.9c1.5,0,1.7-1,1.7-1.7c0-0.4,0.3-0.5,0.8-0.5
		c0.6,0,0.8,0.2,0.8,0.8c0,1.6-1.4,2.8-3.4,2.8c-1.8,0-3.3-0.9-3.3-3.3v-4.4c0-2.4,1.5-3.3,3.3-3.3c2.1,0,3.4,1.1,3.4,2.7
		c0,0.7-0.3,0.8-0.8,0.8c-0.5,0-0.8-0.2-0.8-0.5C333,64,332.8,62.9,331.3,62.9z"/>
	<path class="st0" d="M340.7,69.6c0-2.7-4.9-1.6-4.9-5.2c0-2.2,1.9-2.9,3.5-2.9c1,0,2.7,0.3,2.7,1.1c0,0.3-0.2,0.9-0.7,0.9
		c-0.4,0-0.8-0.6-2.1-0.6c-1.1,0-1.9,0.4-1.9,1.4c0,2.2,4.9,1.2,4.9,5.2c0,2.1-1.4,3.2-3.4,3.2c-2,0-3.3-1-3.3-1.8
		c0-0.4,0.3-0.9,0.7-0.9c0.5,0,0.9,1.2,2.6,1.2C339.9,71.2,340.7,70.7,340.7,69.6z"/>
</g>
</svg>
